<svg width="32" height="31" viewBox="0 0 32 31" fill="none" xmlns="http://www.w3.org/2000/svg">
<path fill-rule="evenodd" clip-rule="evenodd" d="M13.8578 25.5137L3.52443 16.4721C2.9363 15.9575 2.9363 15.0425 3.52443 14.5279L13.8578 5.48626C14.6929 4.75548 16 5.34859 16 6.45833V24.5417C16 25.6514 14.6929 26.2445 13.8578 25.5137ZM26.7744 25.5137L16.4411 16.4721C15.853 15.9575 15.853 15.0425 16.4411 14.5279L26.7744 5.48626C27.6096 4.75548 28.9167 5.34859 28.9167 6.45833V24.5417C28.9167 25.6514 27.6096 26.2445 26.7744 25.5137ZM13.4167 9.30487L6.33651 15.5L13.4167 21.6951V9.30487ZM26.3333 21.6951V9.30487L19.2532 15.5L26.3333 21.6951Z" fill="black"/>
</svg>
