<svg width="32" height="32" viewBox="0 0 32 32" fill="none" xmlns="http://www.w3.org/2000/svg">
<path d="M24.4475 12L11.97 4.61333C11.2948 4.21088 10.5285 4.00005 9.74884 4.00226C8.96919 4.00447 8.20399 4.21964 7.53097 4.62592C6.85794 5.03219 6.30108 5.6151 5.91692 6.31544C5.53277 7.01577 5.33502 7.80858 5.34375 8.61333V23.44C5.34375 24.6494 5.80917 25.8092 6.63761 26.6644C7.46605 27.5196 8.58966 28 9.76125 28C10.5368 27.9986 11.2984 27.7871 11.97 27.3867L24.4475 20C25.118 19.5995 25.6746 19.024 26.0615 18.3312C26.4485 17.6385 26.6522 16.853 26.6522 16.0533C26.6522 15.2537 26.4485 14.4681 26.0615 13.7754C25.6746 13.0827 25.118 12.5072 24.4475 12.1067V12ZM23.1558 17.5867L10.6783 25.08C10.3987 25.2436 10.0827 25.3296 9.76125 25.3296C9.4398 25.3296 9.12383 25.2436 8.84417 25.08C8.56529 24.9138 8.33372 24.6747 8.17274 24.3868C8.01175 24.099 7.92703 23.7724 7.92709 23.44V8.56C7.92703 8.22759 8.01175 7.90103 8.17274 7.61315C8.33372 7.32526 8.56529 7.0862 8.84417 6.92C9.12498 6.75887 9.44001 6.67185 9.76125 6.66667C10.0823 6.67347 10.3969 6.76039 10.6783 6.92L23.1558 14.36C23.4348 14.5261 23.6665 14.7652 23.8276 15.053C23.9887 15.3409 24.0735 15.6675 24.0735 16C24.0735 16.3325 23.9887 16.6591 23.8276 16.9469C23.6665 17.2348 23.4348 17.4739 23.1558 17.64V17.5867Z" fill="black"/>
</svg>
