<svg width="32" height="31" viewBox="0 0 32 31" fill="none" xmlns="http://www.w3.org/2000/svg">
<path fill-rule="evenodd" clip-rule="evenodd" d="M18.1422 5.48626L28.4756 14.5279C29.0637 15.0425 29.0637 15.9575 28.4756 16.4721L18.1422 25.5137C17.3071 26.2445 16 25.6514 16 24.5417L16 6.45833C16 5.34859 17.3071 4.75548 18.1422 5.48626ZM5.22557 5.48626L15.5589 14.5279C16.147 15.0425 16.147 15.9575 15.5589 16.4721L5.22557 25.5137C4.3904 26.2445 3.08333 25.6514 3.08333 24.5417L3.08333 6.45833C3.08333 5.34859 4.3904 4.75548 5.22557 5.48626ZM18.5833 21.6951L25.6635 15.5L18.5833 9.30487V21.6951ZM5.66667 9.30487L5.66667 21.6951L12.7468 15.5L5.66667 9.30487Z" fill="black"/>
</svg>
