<svg width="21" height="31" viewBox="0 0 21 31" fill="none" xmlns="http://www.w3.org/2000/svg">
<path fill-rule="evenodd" clip-rule="evenodd" d="M2.85714 2H5.71429C7.29224 2 8.57143 3.2536 8.57143 4.8V27.2C8.57143 28.7464 7.29224 30 5.71429 30H2.85714C1.27919 30 0 28.7464 0 27.2V4.8C0 3.2536 1.27919 2 2.85714 2ZM14.2857 2H17.1429C18.7208 2 20 3.2536 20 4.8V27.2C20 28.7464 18.7208 30 17.1429 30H14.2857C12.7078 30 11.4286 28.7464 11.4286 27.2V4.8C11.4286 3.2536 12.7078 2 14.2857 2ZM2.85714 4.8V27.2H5.71429V4.8H2.85714ZM14.2857 4.8V27.2H17.1429V4.8H14.2857Z" fill="black"/>
</svg>
