<svg width="28" height="28" viewBox="0 0 28 28" fill="none" xmlns="http://www.w3.org/2000/svg">
<path d="M25.3283 24.4717L21 20.1783C22.6801 18.0835 23.4937 15.4245 23.2736 12.7482C23.0535 10.0718 21.8163 7.58158 19.8164 5.78942C17.8166 3.99726 15.2061 3.03943 12.5217 3.11288C9.83737 3.18633 7.28317 4.28549 5.38433 6.18433C3.48548 8.08317 2.38633 10.6374 2.31288 13.3217C2.23942 16.0061 3.19725 18.6166 4.98941 20.6164C6.78157 22.6163 9.27185 23.8535 11.9482 24.0736C14.6245 24.2937 17.2835 23.4801 19.3783 21.8L23.6717 26.0933C23.7801 26.2027 23.9092 26.2895 24.0513 26.3487C24.1935 26.4079 24.346 26.4384 24.5 26.4384C24.654 26.4384 24.8065 26.4079 24.9487 26.3487C25.0908 26.2895 25.2199 26.2027 25.3283 26.0933C25.5386 25.8758 25.6561 25.5851 25.6561 25.2825C25.6561 24.9799 25.5386 24.6892 25.3283 24.4717ZM12.8333 21.8C11.2181 21.8 9.63917 21.321 8.29617 20.4237C6.95317 19.5263 5.90643 18.2508 5.28831 16.7586C4.6702 15.2663 4.50847 13.6243 4.82358 12.0401C5.13869 10.4559 5.91649 9.00075 7.05862 7.85863C8.20075 6.7165 9.65591 5.9387 11.2401 5.62358C12.8243 5.30847 14.4663 5.4702 15.9586 6.08831C17.4508 6.70643 18.7263 7.75317 19.6237 9.09617C20.521 10.4392 21 12.0181 21 13.6333C21 15.7993 20.1396 17.8765 18.608 19.408C17.0765 20.9396 14.9993 21.8 12.8333 21.8Z" fill="black"/>
</svg>
